# xmcd
#
# Track frame offsets: 
#        150
#        16315
#        41290
#        63340
#        78297
#        98572
#        112402
#        139587
#        152342
#        172062
#
# Disc length: 2568 seconds
#
# Revision: 0
# Processed by: cddbd v1.5.2PL0 Copyright (c) Steve Scherf et al.
# Submitted via: ExactAudioCopy v0.99pb3
#
DISCID=740a060a
DTITLE=Dwight Edwards - Rivers Of Blues
DYEAR=2001
DGENRE=Blues
TTITLE0=Dimples
TTITLE1=Born Again Fool
TTITLE2=Sorry
TTITLE3=Jody Brown
TTITLE4=Blindsided
TTITLE5=All Over The World
TTITLE6=Don't Go
TTITLE7=Chicago
TTITLE8=Broken Heart
TTITLE9=Hear Me Calling
EXTD=
EXTT0=
EXTT1=
EXTT2=
EXTT3=
EXTT4=
EXTT5=
EXTT6=
EXTT7=
EXTT8=
EXTT9=
PLAYORDER=
